<svg aria-hidden="true" style="position: absolute; width: 0; height: 0; overflow: hidden;" version="1.1" xmlns="http://www.w3.org/2000/svg" xmlns:xlink="http://www.w3.org/1999/xlink">
<defs>
<symbol id="icon-sun" viewBox="0 0 32 32">
<path d="M16 23.667c-1.516 0-2.999-0.45-4.259-1.292s-2.243-2.040-2.824-3.441c-0.58-1.401-0.732-2.942-0.436-4.43s1.026-2.853 2.098-3.925 2.438-1.802 3.925-2.098c1.487-0.296 3.029-0.144 4.43 0.436s2.598 1.563 3.441 2.824c0.842 1.261 1.292 2.743 1.292 4.259-0.003 2.032-0.812 3.98-2.249 5.417s-3.385 2.246-5.417 2.249zM16 10.333c-1.121 0-2.216 0.332-3.148 0.955s-1.658 1.508-2.087 2.543-0.541 2.175-0.322 3.274c0.219 1.099 0.758 2.109 1.551 2.901s1.802 1.332 2.901 1.551c1.099 0.219 2.239 0.107 3.274-0.322s1.921-1.155 2.543-2.087c0.623-0.932 0.955-2.027 0.955-3.148-0.003-1.502-0.602-2.941-1.664-4.003s-2.501-1.66-4.003-1.664z"></path>
<path d="M16 6.667c-0.264-0.003-0.517-0.11-0.703-0.297s-0.293-0.439-0.297-0.703v-2c0-0.265 0.105-0.52 0.293-0.707s0.442-0.293 0.707-0.293 0.52 0.105 0.707 0.293c0.188 0.188 0.293 0.442 0.293 0.707v2c-0.003 0.264-0.11 0.516-0.297 0.703s-0.439 0.293-0.703 0.297z"></path>
<path d="M16 29.333c-0.264-0.003-0.517-0.11-0.703-0.297s-0.293-0.439-0.297-0.703v-2c0-0.265 0.105-0.52 0.293-0.707s0.442-0.293 0.707-0.293 0.52 0.105 0.707 0.293c0.188 0.187 0.293 0.442 0.293 0.707v2c-0.003 0.264-0.11 0.517-0.297 0.703s-0.439 0.293-0.703 0.297z"></path>
<path d="M28.333 17h-2c-0.265 0-0.52-0.105-0.707-0.293s-0.293-0.442-0.293-0.707 0.105-0.52 0.293-0.707c0.187-0.188 0.442-0.293 0.707-0.293h2c0.265 0 0.52 0.105 0.707 0.293s0.293 0.442 0.293 0.707-0.105 0.52-0.293 0.707c-0.187 0.188-0.442 0.293-0.707 0.293z"></path>
<path d="M5.667 17h-2c-0.265 0-0.52-0.105-0.707-0.293s-0.293-0.442-0.293-0.707 0.105-0.52 0.293-0.707c0.188-0.188 0.442-0.293 0.707-0.293h2c0.265 0 0.52 0.105 0.707 0.293s0.293 0.442 0.293 0.707-0.105 0.52-0.293 0.707c-0.188 0.188-0.442 0.293-0.707 0.293z"></path>
<path d="M8.667 9.667c-0.257-0.020-0.497-0.139-0.667-0.333l-1.453-1.333c-0.095-0.095-0.171-0.209-0.223-0.333s-0.078-0.258-0.078-0.393c0-0.135 0.027-0.269 0.078-0.393s0.127-0.238 0.223-0.333c0.095-0.095 0.209-0.171 0.333-0.223s0.258-0.078 0.393-0.078c0.135 0 0.269 0.027 0.393 0.078s0.238 0.127 0.333 0.223l1.333 1.453c0.164 0.183 0.255 0.421 0.255 0.667s-0.091 0.483-0.255 0.667c-0.17 0.194-0.409 0.314-0.667 0.333z"></path>
<path d="M24.747 25.747c-0.131 0.001-0.262-0.025-0.383-0.075s-0.231-0.124-0.324-0.218l-1.373-1.453c-0.089-0.187-0.118-0.396-0.083-0.6s0.132-0.392 0.279-0.538c0.146-0.146 0.334-0.243 0.538-0.278s0.413-0.006 0.6 0.083l1.453 1.333c0.187 0.187 0.293 0.442 0.293 0.707s-0.105 0.519-0.293 0.707c-0.089 0.101-0.197 0.182-0.319 0.24s-0.253 0.089-0.388 0.094z"></path>
<path d="M23.333 9.667c-0.257-0.020-0.497-0.139-0.667-0.333-0.164-0.183-0.255-0.421-0.255-0.667s0.091-0.483 0.255-0.667l1.333-1.453c0.193-0.193 0.454-0.301 0.727-0.301s0.534 0.108 0.727 0.301c0.193 0.193 0.301 0.454 0.301 0.727s-0.108 0.534-0.301 0.727l-1.453 1.333c-0.17 0.194-0.409 0.314-0.667 0.333z"></path>
<path d="M7.253 25.747c-0.131 0.001-0.262-0.025-0.383-0.075s-0.231-0.124-0.324-0.218c-0.187-0.187-0.292-0.442-0.292-0.707s0.105-0.519 0.292-0.707l1.453-1.373c0.187-0.089 0.396-0.118 0.6-0.083s0.392 0.132 0.538 0.278c0.146 0.146 0.244 0.334 0.278 0.538s0.006 0.413-0.083 0.6l-1.333 1.453c-0.097 0.098-0.214 0.175-0.342 0.226s-0.266 0.073-0.404 0.067z"></path>
</symbol>
<symbol id="icon-moon" viewBox="0 0 32 32">
<path d="M16.128 31.453c-5.902 0-11.591-3.255-14.409-8.881-3.889-7.77-0.97-17.125 6.647-21.299l1.326-0.726-0.396 1.459c-0.952 3.512-0.578 7.238 1.051 10.491 1.769 3.534 4.81 6.168 8.56 7.415 3.751 1.247 7.762 0.96 11.297-0.809v0c0.161-0.080 0.317-0.166 0.472-0.252l1.326-0.727-0.376 1.449c-1.199 4.422-4.231 8.131-8.321 10.179-2.306 1.154-4.76 1.7-7.177 1.701zM7.722 3.176c-6.056 4.136-8.207 12.119-4.851 18.82 3.653 7.296 12.56 10.258 19.857 6.606 3.316-1.661 5.878-4.511 7.193-7.95-3.623 1.561-7.644 1.738-11.421 0.481-4.077-1.356-7.381-4.218-9.305-8.060-1.54-3.075-2.047-6.537-1.473-9.897z"></path>
</symbol>
</defs>
</svg>
